<svg xmlns="http://www.w3.org/2000/svg" xmlns:xlink="http://www.w3.org/1999/xlink" width="500" zoomAndPan="magnify" viewBox="0 0 375 374.999991" height="500" preserveAspectRatio="xMidYMid meet" version="1.0"><defs><filter x="0%" y="0%" width="100%" height="100%" id="4ecfcfb9cb"><feColorMatrix values="0 0 0 0 1 0 0 0 0 1 0 0 0 0 1 0 0 0 1 0" color-interpolation-filters="sRGB"/></filter><g/><clipPath id="70023a9086"><path d="M 130.414062 76.328125 L 197.382812 76.328125 L 197.382812 142.359375 L 130.414062 142.359375 Z M 130.414062 76.328125 " clip-rule="nonzero"/></clipPath><clipPath id="7d27f82c0b"><path d="M 203.257812 88.726562 L 259.738281 88.726562 L 259.738281 142.359375 L 203.257812 142.359375 Z M 203.257812 88.726562 " clip-rule="nonzero"/></clipPath><clipPath id="744d489764"><path d="M 140.902344 148.191406 L 197.382812 148.191406 L 197.382812 201.820312 L 140.902344 201.820312 Z M 140.902344 148.191406 " clip-rule="nonzero"/></clipPath><clipPath id="3c1a357198"><path d="M 203.257812 148.191406 L 250.996094 148.191406 L 250.996094 193.261719 L 203.257812 193.261719 Z M 203.257812 148.191406 " clip-rule="nonzero"/></clipPath><mask id="ab348d8645"><g filter="url(#4ecfcfb9cb)"><rect x="-37.5" width="450" fill="#000000" y="-37.499999" height="449.999989" fill-opacity="0.3765"/></g></mask><clipPath id="6114ad8cea"><path d="M 61 1.023438 L 120.167969 1.023438 L 120.167969 71.523438 L 61 71.523438 Z M 61 1.023438 " clip-rule="nonzero"/></clipPath><clipPath id="170ad4d9eb"><path d="M 0.917969 43 L 6 43 L 6 49 L 0.917969 49 Z M 0.917969 43 " clip-rule="nonzero"/></clipPath><clipPath id="a892dcaf45"><rect x="0" width="121" y="0" height="72"/></clipPath><clipPath id="7d201b936b"><path d="M 175 104 L 234.511719 104 L 234.511719 174.402344 L 175 174.402344 Z M 175 104 " clip-rule="nonzero"/></clipPath><clipPath id="9759219ce1"><path d="M 115.261719 146 L 121 146 L 121 152 L 115.261719 152 Z M 115.261719 146 " clip-rule="nonzero"/></clipPath></defs><g clip-path="url(#70023a9086)"><path fill="#00b074" d="M 130.414062 76.328125 L 197.382812 76.328125 L 197.382812 142.359375 L 130.414062 142.359375 Z M 130.414062 76.328125 " fill-opacity="1" fill-rule="nonzero"/></g><g clip-path="url(#7d27f82c0b)"><path fill="#2b9cff" d="M 203.257812 88.726562 L 259.738281 88.726562 L 259.738281 142.359375 L 203.257812 142.359375 Z M 203.257812 88.726562 " fill-opacity="1" fill-rule="nonzero"/></g><g clip-path="url(#744d489764)"><path fill="#2b9cff" d="M 140.902344 148.191406 L 197.382812 148.191406 L 197.382812 201.820312 L 140.902344 201.820312 Z M 140.902344 148.191406 " fill-opacity="1" fill-rule="nonzero"/></g><g clip-path="url(#3c1a357198)"><path fill="#00b074" d="M 203.257812 148.191406 L 250.996094 148.191406 L 250.996094 193.261719 L 203.257812 193.261719 Z M 203.257812 148.191406 " fill-opacity="1" fill-rule="nonzero"/></g><g mask="url(#ab348d8645)"><g transform="matrix(1, 0, 0, 1, 120, 108)"><g clip-path="url(#a892dcaf45)"><g clip-path="url(#6114ad8cea)"><path fill="#5b5b5b" d="M 120.167969 38.878906 L 120.175781 43.261719 C 120.175781 44.886719 118.847656 46.21875 117.226562 46.21875 L 98.804688 46.226562 C 97.183594 46.226562 95.851562 47.550781 95.851562 49.183594 L 95.859375 68.414062 C 95.859375 70.035156 94.53125 71.363281 92.910156 71.363281 L 88.539062 71.363281 C 86.917969 71.363281 84.257812 71.367188 82.636719 71.367188 L 78.261719 71.367188 C 76.640625 71.367188 75.3125 70.035156 75.3125 68.414062 L 75.304688 49.183594 C 75.304688 47.558594 73.984375 46.226562 72.355469 46.226562 L 61.222656 46.234375 L 61.222656 44.355469 L 66.574219 44.355469 L 66.574219 39.761719 L 63.265625 39.761719 L 63.265625 34.398438 L 68.617188 34.398438 L 68.617188 29.417969 L 65.175781 29.417969 L 65.175781 25.640625 L 72.355469 25.636719 C 73.972656 25.636719 75.304688 24.308594 75.304688 22.683594 L 75.296875 4.222656 C 75.296875 2.589844 76.621094 1.265625 78.246094 1.265625 L 82.621094 1.265625 C 84.242188 1.265625 86.894531 1.265625 88.523438 1.257812 L 92.894531 1.257812 C 94.515625 1.257812 95.84375 2.589844 95.84375 4.214844 L 95.84375 22.675781 C 95.84375 24.300781 97.175781 25.632812 98.796875 25.632812 L 117.21875 25.625 C 118.847656 25.625 120.167969 26.957031 120.167969 28.582031 L 120.167969 32.964844 C 120.167969 34.589844 120.167969 37.257812 120.167969 38.878906 Z M 120.167969 38.878906 " fill-opacity="1" fill-rule="nonzero"/></g><path fill="#5b5b5b" d="M 56.253906 34.398438 L 61.222656 34.398438 L 61.222656 39.378906 L 56.253906 39.378906 Z M 56.253906 34.398438 " fill-opacity="1" fill-rule="nonzero"/><path fill="#5b5b5b" d="M 56.253906 26.164062 L 61.222656 26.164062 L 61.222656 31.144531 L 56.253906 31.144531 Z M 56.253906 26.164062 " fill-opacity="1" fill-rule="nonzero"/><path fill="#5b5b5b" d="M 53.082031 45.796875 L 58.050781 45.796875 L 58.050781 50.777344 L 53.082031 50.777344 Z M 53.082031 45.796875 " fill-opacity="1" fill-rule="nonzero"/><path fill="#5b5b5b" d="M 48.113281 38.320312 L 53.082031 38.320312 L 53.082031 43.300781 L 48.113281 43.300781 Z M 48.113281 38.320312 " fill-opacity="1" fill-rule="nonzero"/><path fill="#5b5b5b" d="M 47.273438 29.417969 L 52.242188 29.417969 L 52.242188 34.398438 L 47.273438 34.398438 Z M 47.273438 29.417969 " fill-opacity="1" fill-rule="nonzero"/><path fill="#5b5b5b" d="M 43.144531 21.183594 L 48.113281 21.183594 L 48.113281 26.164062 L 43.144531 26.164062 Z M 43.144531 21.183594 " fill-opacity="1" fill-rule="nonzero"/><path fill="#5b5b5b" d="M 34.546875 40.816406 L 39.515625 40.816406 L 39.515625 45.796875 L 34.546875 45.796875 Z M 34.546875 40.816406 " fill-opacity="1" fill-rule="nonzero"/><path fill="#5b5b5b" d="M 32.0625 29.417969 L 37.03125 29.417969 L 37.03125 34.398438 L 32.0625 34.398438 Z M 32.0625 29.417969 " fill-opacity="1" fill-rule="nonzero"/><path fill="#5b5b5b" d="M 22.886719 10.078125 L 27.855469 10.078125 L 27.855469 15.054688 L 22.886719 15.054688 Z M 22.886719 10.078125 " fill-opacity="1" fill-rule="nonzero"/><path fill="#5b5b5b" d="M 20.402344 21.949219 L 25.371094 21.949219 L 25.371094 26.929688 L 20.402344 26.929688 Z M 20.402344 21.949219 " fill-opacity="1" fill-rule="nonzero"/><path fill="#5b5b5b" d="M 15.433594 37.847656 L 20.402344 37.847656 L 20.402344 42.824219 L 15.433594 42.824219 Z M 15.433594 37.847656 " fill-opacity="1" fill-rule="nonzero"/><path fill="#5b5b5b" d="M 1.980469 26.929688 L 6.949219 26.929688 L 6.949219 31.910156 L 1.980469 31.910156 Z M 1.980469 26.929688 " fill-opacity="1" fill-rule="nonzero"/><g clip-path="url(#170ad4d9eb)"><path fill="#5b5b5b" d="M 0.910156 43.300781 L 5.878906 43.300781 L 5.878906 48.277344 L 0.910156 48.277344 Z M 0.910156 43.300781 " fill-opacity="1" fill-rule="nonzero"/></g></g></g></g><g clip-path="url(#7d201b936b)"><path fill="#ffffff" d="M 234.511719 141.757812 L 234.519531 146.140625 C 234.519531 147.761719 233.191406 149.097656 231.570312 149.097656 L 213.144531 149.101562 C 211.527344 149.101562 210.195312 150.429688 210.195312 152.058594 L 210.203125 171.289062 C 210.203125 172.914062 208.875 174.238281 207.253906 174.238281 L 202.878906 174.238281 C 201.261719 174.238281 198.601562 174.246094 196.980469 174.246094 L 192.605469 174.246094 C 190.984375 174.246094 189.65625 172.914062 189.65625 171.289062 L 189.648438 152.058594 C 189.648438 150.4375 188.324219 149.105469 186.699219 149.105469 L 175.566406 149.113281 L 175.566406 147.234375 L 180.917969 147.234375 L 180.917969 142.636719 L 177.609375 142.636719 L 177.609375 137.277344 L 182.960938 137.277344 L 182.960938 132.296875 L 179.519531 132.296875 L 179.519531 128.519531 L 186.699219 128.511719 C 188.316406 128.511719 189.648438 127.1875 189.648438 125.5625 L 189.640625 107.097656 C 189.640625 105.46875 190.960938 104.144531 192.589844 104.144531 L 196.964844 104.144531 C 198.585938 104.144531 201.238281 104.144531 202.867188 104.136719 L 207.238281 104.136719 C 208.859375 104.136719 210.1875 105.46875 210.1875 107.089844 L 210.1875 125.554688 C 210.1875 127.179688 211.519531 128.511719 213.136719 128.511719 L 231.5625 128.5 C 233.191406 128.5 234.511719 129.835938 234.511719 131.460938 L 234.511719 135.839844 C 234.511719 137.46875 234.511719 140.132812 234.511719 141.757812 Z M 234.511719 141.757812 " fill-opacity="1" fill-rule="nonzero"/></g><path fill="#ffffff" d="M 170.597656 137.277344 L 175.566406 137.277344 L 175.566406 142.253906 L 170.597656 142.253906 Z M 170.597656 137.277344 " fill-opacity="1" fill-rule="nonzero"/><path fill="#ffffff" d="M 170.597656 129.039062 L 175.566406 129.039062 L 175.566406 134.019531 L 170.597656 134.019531 Z M 170.597656 129.039062 " fill-opacity="1" fill-rule="nonzero"/><path fill="#ffffff" d="M 167.425781 148.671875 L 172.394531 148.671875 L 172.394531 153.652344 L 167.425781 153.652344 Z M 167.425781 148.671875 " fill-opacity="1" fill-rule="nonzero"/><path fill="#ffffff" d="M 162.457031 141.195312 L 167.425781 141.195312 L 167.425781 146.175781 L 162.457031 146.175781 Z M 162.457031 141.195312 " fill-opacity="1" fill-rule="nonzero"/><path fill="#ffffff" d="M 161.617188 132.296875 L 166.585938 132.296875 L 166.585938 137.277344 L 161.617188 137.277344 Z M 161.617188 132.296875 " fill-opacity="1" fill-rule="nonzero"/><path fill="#ffffff" d="M 157.488281 124.0625 L 162.457031 124.0625 L 162.457031 129.039062 L 157.488281 129.039062 Z M 157.488281 124.0625 " fill-opacity="1" fill-rule="nonzero"/><path fill="#ffffff" d="M 148.890625 143.695312 L 153.859375 143.695312 L 153.859375 148.671875 L 148.890625 148.671875 Z M 148.890625 143.695312 " fill-opacity="1" fill-rule="nonzero"/><path fill="#ffffff" d="M 146.40625 132.296875 L 151.375 132.296875 L 151.375 137.277344 L 146.40625 137.277344 Z M 146.40625 132.296875 " fill-opacity="1" fill-rule="nonzero"/><path fill="#ffffff" d="M 137.230469 112.953125 L 142.199219 112.953125 L 142.199219 117.933594 L 137.230469 117.933594 Z M 137.230469 112.953125 " fill-opacity="1" fill-rule="nonzero"/><path fill="#ffffff" d="M 134.746094 124.828125 L 139.714844 124.828125 L 139.714844 129.804688 L 134.746094 129.804688 Z M 134.746094 124.828125 " fill-opacity="1" fill-rule="nonzero"/><path fill="#ffffff" d="M 129.777344 140.722656 L 134.746094 140.722656 L 134.746094 145.703125 L 129.777344 145.703125 Z M 129.777344 140.722656 " fill-opacity="1" fill-rule="nonzero"/><path fill="#ffffff" d="M 116.324219 129.804688 L 121.292969 129.804688 L 121.292969 134.785156 L 116.324219 134.785156 Z M 116.324219 129.804688 " fill-opacity="1" fill-rule="nonzero"/><g clip-path="url(#9759219ce1)"><path fill="#ffffff" d="M 115.253906 146.175781 L 120.222656 146.175781 L 120.222656 151.15625 L 115.253906 151.15625 Z M 115.253906 146.175781 " fill-opacity="1" fill-rule="nonzero"/></g><g fill="#2b9cff" fill-opacity="1"><g transform="translate(65.641099, 295.710777)"><g><path d="M 8.875 0 L 7.375 0 L 7.375 -3.671875 L 2.671875 -3.671875 L 2.671875 0 L 1.171875 0 L 1.171875 -8.875 L 2.671875 -8.875 L 2.671875 -5.03125 L 7.375 -5.03125 L 7.375 -8.875 L 8.875 -8.875 Z M 8.875 0 "/></g></g></g><g fill="#2b9cff" fill-opacity="1"><g transform="translate(78.844631, 295.710777)"><g><path d="M 7.515625 -7.53125 L 2.671875 -7.53125 L 2.671875 -5.140625 L 7 -5.140625 L 7 -3.796875 L 2.671875 -3.796875 L 2.671875 -1.34375 L 7.65625 -1.34375 L 7.65625 0 L 1.171875 0 L 1.171875 -8.875 L 7.515625 -8.875 Z M 7.515625 -7.53125 "/></g></g></g><g fill="#2b9cff" fill-opacity="1"><g transform="translate(90.335887, 295.710777)"><g><path d="M 6.90625 -2 L 2.421875 -2 L 1.578125 0 L 0.015625 0 L 3.9375 -8.875 L 5.46875 -8.875 L 9.34375 0 L 7.75 0 Z M 6.328125 -3.34375 L 4.65625 -7.28125 L 2.984375 -3.34375 Z M 6.328125 -3.34375 "/></g></g></g><g fill="#2b9cff" fill-opacity="1"><g transform="translate(102.867195, 295.710777)"><g><path d="M 2.671875 -1.359375 L 6.515625 -1.359375 L 6.515625 0 L 1.171875 0 L 1.171875 -8.875 L 2.671875 -8.875 Z M 2.671875 -1.359375 "/></g></g></g><g fill="#2b9cff" fill-opacity="1"><g transform="translate(112.811067, 295.710777)"><g><path d="M 7.234375 -7.53125 L 4.421875 -7.53125 L 4.421875 0 L 2.921875 0 L 2.921875 -7.53125 L 0.109375 -7.53125 L 0.109375 -8.875 L 7.234375 -8.875 Z M 7.234375 -7.53125 "/></g></g></g><g fill="#2b9cff" fill-opacity="1"><g transform="translate(123.325686, 295.710777)"><g><path d="M 8.875 0 L 7.375 0 L 7.375 -3.671875 L 2.671875 -3.671875 L 2.671875 0 L 1.171875 0 L 1.171875 -8.875 L 2.671875 -8.875 L 2.671875 -5.03125 L 7.375 -5.03125 L 7.375 -8.875 L 8.875 -8.875 Z M 8.875 0 "/></g></g></g><g fill="#2b9cff" fill-opacity="1"><g transform="translate(136.529218, 295.710777)"><g><path d="M 5.09375 -8.921875 C 5.726562 -8.921875 6.34375 -8.800781 6.9375 -8.5625 C 7.53125 -8.320312 8.039062 -7.984375 8.46875 -7.546875 L 7.59375 -6.453125 C 7.28125 -6.804688 6.898438 -7.082031 6.453125 -7.28125 C 6.015625 -7.488281 5.570312 -7.59375 5.125 -7.59375 C 4.238281 -7.59375 3.488281 -7.285156 2.875 -6.671875 C 2.257812 -6.066406 1.953125 -5.332031 1.953125 -4.46875 C 1.953125 -3.582031 2.257812 -2.835938 2.875 -2.234375 C 3.488281 -1.628906 4.238281 -1.328125 5.125 -1.328125 C 6.050781 -1.328125 6.875 -1.679688 7.59375 -2.390625 L 8.484375 -1.390625 C 8.023438 -0.941406 7.488281 -0.585938 6.875 -0.328125 C 6.269531 -0.0664062 5.660156 0.0625 5.046875 0.0625 C 3.742188 0.0625 2.648438 -0.367188 1.765625 -1.234375 C 0.878906 -2.097656 0.4375 -3.171875 0.4375 -4.453125 C 0.4375 -5.710938 0.882812 -6.769531 1.78125 -7.625 C 2.6875 -8.488281 3.789062 -8.921875 5.09375 -8.921875 Z M 5.09375 -8.921875 "/></g></g></g><g fill="#2b9cff" fill-opacity="1"><g transform="translate(148.5405, 295.710777)"><g><path d="M 6.90625 -2 L 2.421875 -2 L 1.578125 0 L 0.015625 0 L 3.9375 -8.875 L 5.46875 -8.875 L 9.34375 0 L 7.75 0 Z M 6.328125 -3.34375 L 4.65625 -7.28125 L 2.984375 -3.34375 Z M 6.328125 -3.34375 "/></g></g></g><g fill="#2b9cff" fill-opacity="1"><g transform="translate(161.071808, 295.710777)"><g><path d="M 6.796875 0 L 5.171875 -2.6875 C 5.085938 -2.675781 4.953125 -2.671875 4.765625 -2.671875 L 2.671875 -2.671875 L 2.671875 0 L 1.171875 0 L 1.171875 -8.875 L 4.765625 -8.875 C 5.898438 -8.875 6.78125 -8.609375 7.40625 -8.078125 C 8.03125 -7.554688 8.34375 -6.8125 8.34375 -5.84375 C 8.34375 -5.132812 8.179688 -4.535156 7.859375 -4.046875 C 7.546875 -3.554688 7.097656 -3.195312 6.515625 -2.96875 L 8.5 0 Z M 2.671875 -4.015625 L 4.765625 -4.015625 C 6.203125 -4.015625 6.921875 -4.613281 6.921875 -5.8125 C 6.921875 -6.957031 6.203125 -7.53125 4.765625 -7.53125 L 2.671875 -7.53125 Z M 2.671875 -4.015625 "/></g></g></g><g fill="#2b9cff" fill-opacity="1"><g transform="translate(173.412856, 295.710777)"><g><path d="M 7.515625 -7.53125 L 2.671875 -7.53125 L 2.671875 -5.140625 L 7 -5.140625 L 7 -3.796875 L 2.671875 -3.796875 L 2.671875 -1.34375 L 7.65625 -1.34375 L 7.65625 0 L 1.171875 0 L 1.171875 -8.875 L 7.515625 -8.875 Z M 7.515625 -7.53125 "/></g></g></g><g fill="#2b9cff" fill-opacity="1"><g transform="translate(184.904112, 295.710777)"><g/></g></g><g fill="#2b9cff" fill-opacity="1"><g transform="translate(191.347326, 295.710777)"><g><path d="M 7.234375 -7.53125 L 4.421875 -7.53125 L 4.421875 0 L 2.921875 0 L 2.921875 -7.53125 L 0.109375 -7.53125 L 0.109375 -8.875 L 7.234375 -8.875 Z M 7.234375 -7.53125 "/></g></g></g><g fill="#2b9cff" fill-opacity="1"><g transform="translate(201.861945, 295.710777)"><g><path d="M 7.515625 -7.53125 L 2.671875 -7.53125 L 2.671875 -5.140625 L 7 -5.140625 L 7 -3.796875 L 2.671875 -3.796875 L 2.671875 -1.34375 L 7.65625 -1.34375 L 7.65625 0 L 1.171875 0 L 1.171875 -8.875 L 7.515625 -8.875 Z M 7.515625 -7.53125 "/></g></g></g><g fill="#2b9cff" fill-opacity="1"><g transform="translate(213.353202, 295.710777)"><g><path d="M 5.09375 -8.921875 C 5.726562 -8.921875 6.34375 -8.800781 6.9375 -8.5625 C 7.53125 -8.320312 8.039062 -7.984375 8.46875 -7.546875 L 7.59375 -6.453125 C 7.28125 -6.804688 6.898438 -7.082031 6.453125 -7.28125 C 6.015625 -7.488281 5.570312 -7.59375 5.125 -7.59375 C 4.238281 -7.59375 3.488281 -7.285156 2.875 -6.671875 C 2.257812 -6.066406 1.953125 -5.332031 1.953125 -4.46875 C 1.953125 -3.582031 2.257812 -2.835938 2.875 -2.234375 C 3.488281 -1.628906 4.238281 -1.328125 5.125 -1.328125 C 6.050781 -1.328125 6.875 -1.679688 7.59375 -2.390625 L 8.484375 -1.390625 C 8.023438 -0.941406 7.488281 -0.585938 6.875 -0.328125 C 6.269531 -0.0664062 5.660156 0.0625 5.046875 0.0625 C 3.742188 0.0625 2.648438 -0.367188 1.765625 -1.234375 C 0.878906 -2.097656 0.4375 -3.171875 0.4375 -4.453125 C 0.4375 -5.710938 0.882812 -6.769531 1.78125 -7.625 C 2.6875 -8.488281 3.789062 -8.921875 5.09375 -8.921875 Z M 5.09375 -8.921875 "/></g></g></g><g fill="#2b9cff" fill-opacity="1"><g transform="translate(225.364484, 295.710777)"><g><path d="M 8.875 0 L 7.375 0 L 7.375 -3.671875 L 2.671875 -3.671875 L 2.671875 0 L 1.171875 0 L 1.171875 -8.875 L 2.671875 -8.875 L 2.671875 -5.03125 L 7.375 -5.03125 L 7.375 -8.875 L 8.875 -8.875 Z M 8.875 0 "/></g></g></g><g fill="#2b9cff" fill-opacity="1"><g transform="translate(238.568016, 295.710777)"><g><path d="M 8.875 0 L 7.390625 0 L 2.671875 -6.375 L 2.671875 0 L 1.171875 0 L 1.171875 -8.875 L 2.640625 -8.875 L 7.390625 -2.5 L 7.390625 -8.875 L 8.875 -8.875 Z M 8.875 0 "/></g></g></g><g fill="#2b9cff" fill-opacity="1"><g transform="translate(251.78424, 295.710777)"><g><path d="M 1.78125 -7.625 C 2.6875 -8.488281 3.800781 -8.921875 5.125 -8.921875 C 6.457031 -8.921875 7.578125 -8.488281 8.484375 -7.625 C 9.390625 -6.769531 9.84375 -5.707031 9.84375 -4.4375 C 9.84375 -3.164062 9.390625 -2.097656 8.484375 -1.234375 C 7.578125 -0.367188 6.457031 0.0625 5.125 0.0625 C 3.800781 0.0625 2.6875 -0.367188 1.78125 -1.234375 C 0.882812 -2.097656 0.4375 -3.164062 0.4375 -4.4375 C 0.4375 -5.707031 0.882812 -6.769531 1.78125 -7.625 Z M 5.15625 -7.578125 C 4.269531 -7.578125 3.515625 -7.273438 2.890625 -6.671875 C 2.265625 -6.066406 1.953125 -5.320312 1.953125 -4.4375 C 1.953125 -3.5625 2.265625 -2.816406 2.890625 -2.203125 C 3.523438 -1.585938 4.273438 -1.28125 5.140625 -1.28125 C 6.015625 -1.28125 6.757812 -1.585938 7.375 -2.203125 C 8 -2.816406 8.3125 -3.5625 8.3125 -4.4375 C 8.3125 -5.320312 8 -6.066406 7.375 -6.671875 C 6.757812 -7.273438 6.019531 -7.578125 5.15625 -7.578125 Z M 5.15625 -7.578125 "/></g></g></g><g fill="#2b9cff" fill-opacity="1"><g transform="translate(265.228754, 295.710777)"><g><path d="M 2.671875 -1.359375 L 6.515625 -1.359375 L 6.515625 0 L 1.171875 0 L 1.171875 -8.875 L 2.671875 -8.875 Z M 2.671875 -1.359375 "/></g></g></g><g fill="#2b9cff" fill-opacity="1"><g transform="translate(275.172626, 295.710777)"><g><path d="M 1.78125 -7.625 C 2.6875 -8.488281 3.800781 -8.921875 5.125 -8.921875 C 6.457031 -8.921875 7.578125 -8.488281 8.484375 -7.625 C 9.390625 -6.769531 9.84375 -5.707031 9.84375 -4.4375 C 9.84375 -3.164062 9.390625 -2.097656 8.484375 -1.234375 C 7.578125 -0.367188 6.457031 0.0625 5.125 0.0625 C 3.800781 0.0625 2.6875 -0.367188 1.78125 -1.234375 C 0.882812 -2.097656 0.4375 -3.164062 0.4375 -4.4375 C 0.4375 -5.707031 0.882812 -6.769531 1.78125 -7.625 Z M 5.15625 -7.578125 C 4.269531 -7.578125 3.515625 -7.273438 2.890625 -6.671875 C 2.265625 -6.066406 1.953125 -5.320312 1.953125 -4.4375 C 1.953125 -3.5625 2.265625 -2.816406 2.890625 -2.203125 C 3.523438 -1.585938 4.273438 -1.28125 5.140625 -1.28125 C 6.015625 -1.28125 6.757812 -1.585938 7.375 -2.203125 C 8 -2.816406 8.3125 -3.5625 8.3125 -4.4375 C 8.3125 -5.320312 8 -6.066406 7.375 -6.671875 C 6.757812 -7.273438 6.019531 -7.578125 5.15625 -7.578125 Z M 5.15625 -7.578125 "/></g></g></g><g fill="#2b9cff" fill-opacity="1"><g transform="translate(288.61714, 295.710777)"><g><path d="M 7.25 -4.359375 L 8.546875 -4.359375 L 8.546875 -1.09375 C 8.085938 -0.75 7.546875 -0.46875 6.921875 -0.25 C 6.304688 -0.0390625 5.695312 0.0625 5.09375 0.0625 C 3.789062 0.0625 2.6875 -0.367188 1.78125 -1.234375 C 0.882812 -2.097656 0.4375 -3.164062 0.4375 -4.4375 C 0.4375 -5.707031 0.890625 -6.769531 1.796875 -7.625 C 2.710938 -8.488281 3.84375 -8.921875 5.1875 -8.921875 C 5.8125 -8.921875 6.425781 -8.804688 7.03125 -8.578125 C 7.632812 -8.359375 8.160156 -8.054688 8.609375 -7.671875 L 7.75 -6.578125 C 7.019531 -7.253906 6.164062 -7.59375 5.1875 -7.59375 C 4.28125 -7.59375 3.515625 -7.285156 2.890625 -6.671875 C 2.265625 -6.066406 1.953125 -5.320312 1.953125 -4.4375 C 1.953125 -3.550781 2.265625 -2.800781 2.890625 -2.1875 C 3.523438 -1.582031 4.296875 -1.28125 5.203125 -1.28125 C 5.890625 -1.28125 6.570312 -1.484375 7.25 -1.890625 Z M 7.25 -4.359375 "/></g></g></g><g fill="#2b9cff" fill-opacity="1"><g transform="translate(301.28797, 295.710777)"><g><path d="M 4.8125 -2.953125 L 4.8125 0 L 3.328125 0 L 3.328125 -2.90625 L 0.015625 -8.875 L 1.515625 -8.875 L 4.0625 -4.5625 L 6.546875 -8.875 L 8.0625 -8.875 Z M 4.8125 -2.953125 "/></g></g></g><g fill="#00b074" fill-opacity="1"><g transform="translate(73.066117, 265.037625)"><g><path d="M 46.15625 -20.59375 C 46.15625 -19.425781 45.910156 -18.519531 45.421875 -17.875 C 44.941406 -17.226562 44.21875 -16.90625 43.25 -16.90625 L 29.59375 -16.90625 L 29.59375 -4.09375 C 29.59375 -2.96875 29.484375 -1.867188 29.265625 -0.796875 C 29.054688 0.265625 28.660156 1.203125 28.078125 2.015625 C 27.492188 2.835938 26.664062 3.488281 25.59375 3.96875 C 24.53125 4.457031 23.148438 4.703125 21.453125 4.703125 L 19.25 4.703125 C 19.945312 4.171875 20.550781 3.550781 21.0625 2.84375 C 21.582031 2.144531 22 1.421875 22.3125 0.671875 C 22.632812 -0.078125 22.867188 -0.84375 23.015625 -1.625 C 23.171875 -2.40625 23.25 -3.128906 23.25 -3.796875 L 23.25 -16.90625 L 5.84375 -16.90625 L 8.546875 -30.5 C 8.679688 -31.101562 8.796875 -31.601562 8.890625 -32 C 8.992188 -32.394531 9.128906 -32.71875 9.296875 -32.96875 C 9.460938 -33.21875 9.671875 -33.410156 9.921875 -33.546875 C 10.171875 -33.679688 10.53125 -33.765625 11 -33.796875 C 13.363281 -34.035156 15.71875 -34.351562 18.0625 -34.75 C 20.414062 -35.144531 22.734375 -35.601562 25.015625 -36.125 C 27.304688 -36.644531 29.523438 -37.203125 31.671875 -37.796875 C 33.828125 -38.398438 35.882812 -39 37.84375 -39.59375 L 43.15625 -34.09375 C 41.1875 -33.5625 38.957031 -33.117188 36.46875 -32.765625 C 33.988281 -32.421875 31.460938 -32.140625 28.890625 -31.921875 C 26.328125 -31.703125 23.84375 -31.550781 21.4375 -31.46875 C 19.039062 -31.382812 16.960938 -31.363281 15.203125 -31.40625 L 12.84375 -20.59375 L 23.25 -20.59375 L 23.25 -29.34375 L 29.59375 -29.34375 L 29.59375 -20.59375 Z M 1.296875 3.65625 C 2.535156 2.1875 3.6875 0.738281 4.75 -0.6875 C 5.8125 -2.125 6.828125 -3.59375 7.796875 -5.09375 C 8.765625 -6.59375 9.707031 -8.144531 10.625 -9.75 C 11.539062 -11.351562 12.445312 -13.050781 13.34375 -14.84375 L 19.09375 -11.25 C 18.363281 -9.914062 17.359375 -8.5 16.078125 -7 C 14.796875 -5.5 13.351562 -4.054688 11.75 -2.671875 C 10.144531 -1.285156 8.441406 -0.0351562 6.640625 1.078125 C 4.847656 2.191406 3.066406 3.050781 1.296875 3.65625 Z M 31.75 -13.703125 C 35.519531 -12.628906 38.71875 -11.132812 41.34375 -9.21875 C 43.976562 -7.300781 46.015625 -5.144531 47.453125 -2.75 L 42.5 2.40625 C 41.601562 0.695312 40.726562 -0.851562 39.875 -2.25 C 39.019531 -3.644531 38.164062 -4.984375 37.3125 -6.265625 C 36.46875 -7.554688 35.59375 -8.800781 34.6875 -10 C 33.789062 -11.195312 32.8125 -12.429688 31.75 -13.703125 Z M 31.75 -13.703125 "/></g></g></g><g fill="#00b074" fill-opacity="1"><g transform="translate(132.694689, 265.037625)"><g><path d="M 35.09375 -17.953125 C 34.59375 -19.453125 34.0625 -20.859375 33.5 -22.171875 C 32.9375 -23.492188 32.285156 -24.820312 31.546875 -26.15625 C 30.148438 -24.65625 28.679688 -23.351562 27.140625 -22.25 C 25.609375 -21.144531 24.09375 -20.378906 22.59375 -19.953125 L 23.796875 -19.953125 L 23.796875 3.796875 L 18.953125 3.796875 L 18.953125 -2.25 C 16.648438 -0.71875 14.207031 0.53125 11.625 1.5 C 9.039062 2.46875 6.28125 3.234375 3.34375 3.796875 L 2.15625 -1.796875 C 2.414062 -1.796875 2.675781 -1.800781 2.9375 -1.8125 C 3.207031 -1.832031 3.476562 -1.84375 3.75 -1.84375 L 3.75 -19.90625 L 8.59375 -19.90625 L 8.59375 -6.75 C 9.5 -9.28125 10.21875 -11.851562 10.75 -14.46875 C 11.28125 -17.09375 11.597656 -19.71875 11.703125 -22.34375 L 16.296875 -22.34375 C 16.234375 -19.28125 15.785156 -16.398438 14.953125 -13.703125 C 16.484375 -12.929688 17.816406 -11.75 18.953125 -10.15625 L 18.953125 -19.953125 L 22.5 -19.953125 C 23.5625 -21.210938 24.59375 -22.609375 25.59375 -24.140625 C 26.59375 -25.679688 27.535156 -27.289062 28.421875 -28.96875 C 29.304688 -30.65625 30.113281 -32.359375 30.84375 -34.078125 C 31.582031 -35.796875 32.203125 -37.453125 32.703125 -39.046875 L 38.703125 -39.046875 C 38.429688 -37.742188 38.03125 -36.476562 37.5 -35.25 C 38.863281 -33.414062 40.4375 -31.691406 42.21875 -30.078125 C 44.007812 -28.460938 46.117188 -27.085938 48.546875 -25.953125 L 44.203125 -20.5 C 43.398438 -21.132812 42.628906 -21.910156 41.890625 -22.828125 C 41.160156 -23.742188 40.46875 -24.757812 39.8125 -25.875 C 39.164062 -26.988281 38.5625 -28.160156 38 -29.390625 C 37.4375 -30.628906 36.9375 -31.882812 36.5 -33.15625 C 35.9375 -32.113281 35.328125 -31.101562 34.671875 -30.125 C 34.023438 -29.144531 33.316406 -28.203125 32.546875 -27.296875 C 34.117188 -26.867188 35.53125 -26.21875 36.78125 -25.34375 C 38.03125 -24.476562 39.085938 -23.476562 39.953125 -22.34375 Z M 25.40625 -26.046875 C 25.40625 -25.078125 25.195312 -24.300781 24.78125 -23.71875 C 24.363281 -23.132812 23.71875 -22.84375 22.84375 -22.84375 L 2.703125 -22.84375 L 2.703125 -26.046875 L 5.453125 -26.046875 L 5.453125 -36.15625 L 10.046875 -36.15625 L 10.046875 -26.046875 L 12.796875 -26.046875 L 12.796875 -39.703125 L 17.90625 -39.703125 L 17.90625 -34.5 L 25.09375 -34.5 C 25.09375 -32.5 24.257812 -31.5 22.59375 -31.5 L 17.90625 -31.5 L 17.90625 -26.046875 Z M 25.84375 -8.84375 C 27.414062 -8.507812 28.875 -8.132812 30.21875 -7.71875 C 31.570312 -7.300781 32.882812 -6.828125 34.15625 -6.296875 C 35.082031 -7.765625 35.878906 -9.207031 36.546875 -10.625 C 37.210938 -12.039062 37.75 -13.300781 38.15625 -14.40625 L 25.65625 -14.40625 L 25.65625 -17.75 L 42.59375 -17.75 C 43.425781 -17.75 44.078125 -17.625 44.546875 -17.375 C 45.015625 -17.125 45.335938 -16.804688 45.515625 -16.421875 C 45.703125 -16.035156 45.753906 -15.601562 45.671875 -15.125 C 45.585938 -14.644531 45.394531 -14.171875 45.09375 -13.703125 C 44.226562 -12.335938 42.988281 -10.894531 41.375 -9.375 C 39.757812 -7.851562 37.9375 -6.5625 35.90625 -5.5 C 37.070312 -4.9375 38.175781 -4.300781 39.21875 -3.59375 C 40.269531 -2.894531 41.332031 -2.128906 42.40625 -1.296875 L 38.09375 4.90625 C 37.09375 3.601562 36.125 2.375 35.1875 1.21875 C 34.257812 0.0703125 33.300781 -1.046875 32.3125 -2.140625 C 31.332031 -3.242188 30.3125 -4.34375 29.25 -5.4375 C 28.1875 -6.539062 27.050781 -7.675781 25.84375 -8.84375 Z M 14.046875 -11.296875 C 13.410156 -9.898438 12.644531 -8.582031 11.75 -7.34375 C 10.851562 -6.113281 9.800781 -4.984375 8.59375 -3.953125 L 8.59375 -2.296875 C 10.300781 -2.460938 11.988281 -2.671875 13.65625 -2.921875 C 15.320312 -3.171875 17.085938 -3.460938 18.953125 -3.796875 L 18.953125 -8.25 L 15.796875 -5.953125 C 15.367188 -7.785156 14.785156 -9.566406 14.046875 -11.296875 Z M 14.046875 -11.296875 "/></g></g></g><g fill="#00b074" fill-opacity="1"><g transform="translate(192.323262, 265.037625)"><g><path d="M 1.703125 -32.953125 C 5.066406 -33.984375 8.210938 -35.082031 11.140625 -36.25 C 14.078125 -37.414062 16.5 -38.53125 18.40625 -39.59375 L 22.5 -34.296875 C 20.863281 -33.898438 18.726562 -33.566406 16.09375 -33.296875 L 16.09375 -26 L 23.34375 -26 C 23.34375 -23.664062 22.378906 -22.5 20.453125 -22.5 L 16.09375 -22.5 L 16.09375 -20.296875 C 17.632812 -19.492188 19.046875 -18.5625 20.328125 -17.5 C 21.609375 -16.4375 22.632812 -15.300781 23.40625 -14.09375 L 19.09375 -9.203125 C 18.132812 -11.960938 17.132812 -14.492188 16.09375 -16.796875 L 16.09375 4.65625 L 10.296875 4.65625 L 10.296875 -12 C 9.234375 -10.132812 8.015625 -8.390625 6.640625 -6.765625 C 5.273438 -5.148438 3.726562 -3.757812 2 -2.59375 C 3.53125 -6.09375 4.851562 -9.441406 5.96875 -12.640625 C 7.09375 -15.847656 8.070312 -19.132812 8.90625 -22.5 L 3.34375 -22.5 L 3.34375 -26 L 10.296875 -26 L 10.296875 -32.90625 C 8.796875 -32.832031 7.320312 -32.796875 5.875 -32.796875 C 4.425781 -32.796875 3.035156 -32.847656 1.703125 -32.953125 Z M 47.5 -12.453125 C 47.5 -11.285156 47.304688 -10.429688 46.921875 -9.890625 C 46.535156 -9.359375 45.757812 -9.007812 44.59375 -8.84375 L 42.59375 -8.59375 L 42.59375 4.703125 L 36.453125 4.703125 L 36.453125 -7.796875 L 21.453125 -5.90625 L 20.953125 -9.25 L 36.453125 -11.09375 L 36.453125 -39.546875 L 42.59375 -39.546875 L 42.59375 -11.84375 Z M 24.75 -36.09375 C 25.582031 -35.96875 26.472656 -35.710938 27.421875 -35.328125 C 28.367188 -34.941406 29.316406 -34.472656 30.265625 -33.921875 C 31.222656 -33.367188 32.125 -32.742188 32.96875 -32.046875 C 33.820312 -31.347656 34.582031 -30.597656 35.25 -29.796875 L 30.5 -24.59375 C 30.164062 -25.5 29.753906 -26.472656 29.265625 -27.515625 C 28.785156 -28.566406 28.28125 -29.609375 27.75 -30.640625 C 27.21875 -31.679688 26.679688 -32.675781 26.140625 -33.625 C 25.609375 -34.570312 25.144531 -35.394531 24.75 -36.09375 Z M 23.34375 -23.796875 C 24.175781 -23.703125 25.082031 -23.503906 26.0625 -23.203125 C 27.050781 -22.898438 28.03125 -22.5 29 -22 C 29.96875 -21.5 30.898438 -20.921875 31.796875 -20.265625 C 32.703125 -19.617188 33.503906 -18.914062 34.203125 -18.15625 L 29.75 -12.703125 C 29.351562 -13.566406 28.882812 -14.503906 28.34375 -15.515625 C 27.8125 -16.535156 27.242188 -17.550781 26.640625 -18.5625 C 26.046875 -19.582031 25.457031 -20.539062 24.875 -21.4375 C 24.289062 -22.34375 23.78125 -23.128906 23.34375 -23.796875 Z M 23.34375 -23.796875 "/></g></g></g><g fill="#00b074" fill-opacity="1"><g transform="translate(251.951828, 265.037625)"><g><path d="M 19.046875 -22.25 L 28.953125 -22.25 L 28.953125 -29 L 18.953125 -29 L 18.953125 -32.5 L 28.953125 -32.5 L 28.953125 -39.453125 L 35.046875 -39.453125 L 35.046875 -32.5 L 46.90625 -32.5 C 46.90625 -30.164062 45.988281 -29 44.15625 -29 L 35.046875 -29 L 35.046875 -22.25 L 40.90625 -22.25 C 41.738281 -22.25 42.410156 -22.113281 42.921875 -21.84375 C 43.441406 -21.582031 43.816406 -21.242188 44.046875 -20.828125 C 44.285156 -20.410156 44.378906 -19.929688 44.328125 -19.390625 C 44.273438 -18.859375 44.097656 -18.328125 43.796875 -17.796875 C 42.628906 -15.566406 41.394531 -13.515625 40.09375 -11.640625 C 38.800781 -9.773438 37.40625 -8.046875 35.90625 -6.453125 C 37.5 -5.453125 39.253906 -4.539062 41.171875 -3.71875 C 43.085938 -2.90625 45.195312 -2.148438 47.5 -1.453125 L 43.59375 4.453125 C 41.03125 3.753906 38.738281 2.835938 36.71875 1.703125 C 34.707031 0.566406 32.898438 -0.78125 31.296875 -2.34375 C 28.992188 -0.644531 26.425781 0.828125 23.59375 2.078125 C 20.757812 3.328125 17.546875 4.414062 13.953125 5.34375 C 16.785156 3.34375 19.375 1.421875 21.71875 -0.421875 C 24.070312 -2.273438 26.21875 -4.203125 28.15625 -6.203125 C 26.945312 -8.003906 25.925781 -9.945312 25.09375 -12.03125 C 24.257812 -14.113281 23.578125 -16.351562 23.046875 -18.75 L 19.046875 -18.75 Z M 2.15625 -16.75 C 3.113281 -16.914062 4.101562 -17.097656 5.125 -17.296875 C 6.144531 -17.492188 7.1875 -17.726562 8.25 -18 L 8.25 -28 L 3.15625 -28 L 3.15625 -31.5 L 8.25 -31.5 L 8.25 -39.65625 L 14.15625 -39.65625 L 14.15625 -31.5 L 18.5 -31.5 C 18.5 -29.164062 17.53125 -28 15.59375 -28 L 14.15625 -28 L 14.15625 -19.546875 C 14.820312 -19.742188 15.503906 -19.941406 16.203125 -20.140625 C 16.898438 -20.347656 17.582031 -20.566406 18.25 -20.796875 C 17.1875 -19.328125 15.820312 -17.894531 14.15625 -16.5 L 14.15625 -3.046875 C 14.15625 -1.847656 13.9375 -0.765625 13.5 0.203125 C 13.0625 1.171875 12.476562 1.992188 11.75 2.671875 C 11.019531 3.359375 10.171875 3.875 9.203125 4.21875 C 8.234375 4.570312 7.234375 4.75 6.203125 4.75 L 5.59375 4.75 C 6.394531 3.550781 7.035156 2.265625 7.515625 0.890625 C 8.003906 -0.472656 8.25 -1.953125 8.25 -3.546875 L 8.25 -12.203125 C 7.644531 -11.835938 7.035156 -11.488281 6.421875 -11.15625 C 5.804688 -10.820312 5.195312 -10.503906 4.59375 -10.203125 Z M 23.953125 -18.75 C 25.046875 -16.945312 26.191406 -15.3125 27.390625 -13.84375 C 28.597656 -12.382812 29.898438 -11.035156 31.296875 -9.796875 C 32.367188 -11.160156 33.363281 -12.578125 34.28125 -14.046875 C 35.195312 -15.515625 36.035156 -17.082031 36.796875 -18.75 Z M 23.953125 -18.75 "/></g></g></g></svg>